<svg width="389" height="224" viewBox="0 0 389 224" fill="none" xmlns="http://www.w3.org/2000/svg">
<path d="M325 60V212H91V60H325Z" fill="white" stroke="#FF4F00" stroke-width="2"/>
<path d="M370.836 5.48535L324.432 59.5625H91.2637L141.858 4.00195L370.836 5.48535Z" fill="white" stroke="#FF4F00" stroke-width="2"/>
<path d="M374.991 158.435L325.876 211.67L325.002 58.8828L372.049 7.03516L374.991 158.435Z" fill="white" stroke="#FF4F00" stroke-width="2"/>
<path d="M326.5 181L373.495 127L373.979 158.142L327 209L326.5 181Z" fill="#FF4F00"/>
<path d="M92 179.505L324 180.735V210.999H92V179.505Z" fill="#FF4F00"/>
<path d="M107.253 87.3906V75.7543H114.708V77.5213H109.361V80.6804H114.196V82.4474H109.361V87.3906H107.253ZM121.553 83.7202V78.6634H123.61V87.3906H121.615V85.8395H121.525C121.328 86.3281 121.004 86.7277 120.553 87.0384C120.106 87.349 119.555 87.5043 118.9 87.5043C118.328 87.5043 117.822 87.3774 117.382 87.1236C116.947 86.866 116.606 86.4929 116.36 86.0043C116.114 85.5118 115.99 84.9171 115.99 84.2202V78.6634H118.047V83.902C118.047 84.455 118.199 84.8944 118.502 85.2202C118.805 85.5459 119.203 85.7088 119.695 85.7088C119.998 85.7088 120.292 85.6349 120.576 85.4872C120.86 85.3395 121.093 85.1198 121.275 84.8281C121.46 84.5327 121.553 84.1634 121.553 83.7202ZM129.588 87.5611C128.713 87.5611 127.958 87.3793 127.321 87.0156C126.689 86.6482 126.202 86.1293 125.861 85.4588C125.52 84.7846 125.35 83.991 125.35 83.0781C125.35 82.1804 125.52 81.3925 125.861 80.7145C126.206 80.0327 126.687 79.5024 127.304 79.1236C127.922 78.741 128.647 78.5497 129.48 78.5497C130.018 78.5497 130.526 78.6368 131.003 78.8111C131.484 78.9815 131.908 79.2467 132.276 79.6065C132.647 79.9664 132.939 80.4247 133.151 80.9815C133.363 81.5346 133.469 82.1937 133.469 82.9588V83.5895H126.316V82.2031H131.498C131.494 81.8092 131.408 81.4588 131.242 81.152C131.075 80.8414 130.842 80.5971 130.543 80.419C130.248 80.241 129.903 80.152 129.509 80.152C129.088 80.152 128.719 80.2543 128.401 80.4588C128.083 80.6596 127.835 80.9247 127.657 81.2543C127.482 81.58 127.393 81.938 127.39 82.3281V83.5384C127.39 84.0459 127.482 84.4815 127.668 84.8452C127.854 85.205 128.113 85.4815 128.446 85.6747C128.78 85.8641 129.17 85.9588 129.617 85.9588C129.916 85.9588 130.187 85.9171 130.429 85.8338C130.672 85.7467 130.882 85.6198 131.06 85.4531C131.238 85.2865 131.373 85.08 131.463 84.8338L133.384 85.0497C133.263 85.5573 133.032 86.0005 132.691 86.3793C132.354 86.7543 131.922 87.0459 131.395 87.2543C130.869 87.4588 130.266 87.5611 129.588 87.5611ZM137.266 75.7543V87.3906H135.209V75.7543H137.266ZM142.929 77.5213V75.7543H152.213V77.5213H148.617V87.3906H146.526V77.5213H142.929ZM155.236 87.5668C154.683 87.5668 154.185 87.4683 153.742 87.2713C153.302 87.0705 152.954 86.7751 152.696 86.3849C152.443 85.9948 152.316 85.5137 152.316 84.9418C152.316 84.4493 152.407 84.0421 152.588 83.7202C152.77 83.3982 153.018 83.1406 153.333 82.9474C153.647 82.7543 154.001 82.6084 154.395 82.5099C154.793 82.4077 155.204 82.3338 155.628 82.2884C156.14 82.2353 156.554 82.188 156.873 82.1463C157.191 82.1009 157.422 82.0327 157.566 81.9418C157.713 81.8471 157.787 81.7012 157.787 81.5043V81.4702C157.787 81.0421 157.66 80.7107 157.407 80.4759C157.153 80.241 156.787 80.1236 156.31 80.1236C155.806 80.1236 155.407 80.2334 155.111 80.4531C154.819 80.6728 154.623 80.9323 154.52 81.2315L152.6 80.9588C152.751 80.4285 153.001 79.9853 153.35 79.6293C153.698 79.2694 154.124 79.0005 154.628 78.8224C155.132 78.6406 155.689 78.5497 156.299 78.5497C156.719 78.5497 157.138 78.599 157.554 78.6974C157.971 78.7959 158.352 78.9588 158.696 79.1861C159.041 79.4096 159.318 79.7145 159.526 80.1009C159.738 80.4872 159.844 80.9702 159.844 81.5497V87.3906H157.867V86.1918H157.799C157.674 86.4342 157.498 86.6615 157.27 86.8736C157.047 87.0819 156.765 87.2505 156.424 87.3793C156.087 87.5043 155.691 87.5668 155.236 87.5668ZM155.77 86.0554C156.183 86.0554 156.541 85.974 156.844 85.8111C157.147 85.6444 157.38 85.4247 157.543 85.152C157.71 84.8793 157.793 84.5819 157.793 84.2599V83.2315C157.729 83.2846 157.619 83.3338 157.463 83.3793C157.312 83.4247 157.141 83.4645 156.952 83.4986C156.763 83.5327 156.575 83.563 156.39 83.5895C156.204 83.616 156.043 83.6387 155.907 83.6577C155.6 83.6993 155.325 83.7675 155.083 83.8622C154.84 83.9569 154.649 84.0895 154.509 84.2599C154.369 84.4266 154.299 84.6425 154.299 84.9077C154.299 85.2865 154.437 85.5724 154.713 85.7656C154.99 85.9588 155.342 86.0554 155.77 86.0554ZM163.969 82.277V87.3906H161.912V78.6634H163.878V80.1463H163.98C164.181 79.6577 164.501 79.2694 164.941 78.9815C165.384 78.6937 165.931 78.5497 166.583 78.5497C167.185 78.5497 167.71 78.6785 168.157 78.9361C168.607 79.1937 168.956 79.5668 169.202 80.0554C169.452 80.544 169.575 81.1368 169.571 81.8338V87.3906H167.515V82.152C167.515 81.5687 167.363 81.1122 167.06 80.7827C166.761 80.4531 166.346 80.2884 165.816 80.2884C165.456 80.2884 165.136 80.3679 164.855 80.527C164.579 80.6823 164.361 80.9077 164.202 81.2031C164.047 81.4986 163.969 81.8565 163.969 82.277ZM173.537 84.652L173.532 82.169H173.861L176.998 78.6634H179.401L175.543 82.9588H175.117L173.537 84.652ZM171.662 87.3906V75.7543H173.719V87.3906H171.662ZM177.14 87.3906L174.299 83.419L175.685 81.9702L179.6 87.3906H177.14ZM107.253 104.391V92.7543H109.361V102.624H114.486V104.391H107.253ZM120.088 104.561C119.213 104.561 118.458 104.379 117.821 104.016C117.189 103.648 116.702 103.129 116.361 102.459C116.02 101.785 115.85 100.991 115.85 100.078C115.85 99.1804 116.02 98.3925 116.361 97.7145C116.706 97.0327 117.187 96.5024 117.804 96.1236C118.422 95.741 119.147 95.5497 119.98 95.5497C120.518 95.5497 121.026 95.6368 121.503 95.8111C121.984 95.9815 122.408 96.2467 122.776 96.6065C123.147 96.9664 123.439 97.4247 123.651 97.9815C123.863 98.5346 123.969 99.1937 123.969 99.9588V100.589H116.816V99.2031H121.998C121.994 98.8092 121.908 98.4588 121.742 98.152C121.575 97.8414 121.342 97.5971 121.043 97.419C120.748 97.241 120.403 97.152 120.009 97.152C119.588 97.152 119.219 97.2543 118.901 97.4588C118.583 97.6596 118.335 97.9247 118.157 98.2543C117.982 98.58 117.893 98.938 117.89 99.3281V100.538C117.89 101.046 117.982 101.482 118.168 101.845C118.354 102.205 118.613 102.482 118.946 102.675C119.28 102.864 119.67 102.959 120.117 102.959C120.416 102.959 120.687 102.917 120.929 102.834C121.172 102.747 121.382 102.62 121.56 102.453C121.738 102.286 121.873 102.08 121.963 101.834L123.884 102.05C123.763 102.557 123.532 103 123.191 103.379C122.854 103.754 122.422 104.046 121.895 104.254C121.369 104.459 120.766 104.561 120.088 104.561ZM133.255 95.6634L130.147 104.391H127.874L124.766 95.6634H126.959L128.965 102.146H129.056L131.067 95.6634H133.255ZM138.245 104.561C137.37 104.561 136.614 104.379 135.978 104.016C135.345 103.648 134.858 103.129 134.517 102.459C134.176 101.785 134.006 100.991 134.006 100.078C134.006 99.1804 134.176 98.3925 134.517 97.7145C134.862 97.0327 135.343 96.5024 135.961 96.1236C136.578 95.741 137.303 95.5497 138.137 95.5497C138.675 95.5497 139.182 95.6368 139.659 95.8111C140.141 95.9815 140.565 96.2467 140.932 96.6065C141.303 96.9664 141.595 97.4247 141.807 97.9815C142.019 98.5346 142.125 99.1937 142.125 99.9588V100.589H134.972V99.2031H140.154C140.15 98.8092 140.065 98.4588 139.898 98.152C139.731 97.8414 139.498 97.5971 139.199 97.419C138.904 97.241 138.559 97.152 138.165 97.152C137.745 97.152 137.375 97.2543 137.057 97.4588C136.739 97.6596 136.491 97.9247 136.313 98.2543C136.139 98.58 136.05 98.938 136.046 99.3281V100.538C136.046 101.046 136.139 101.482 136.324 101.845C136.51 102.205 136.769 102.482 137.103 102.675C137.436 102.864 137.826 102.959 138.273 102.959C138.572 102.959 138.843 102.917 139.086 102.834C139.328 102.747 139.538 102.62 139.716 102.453C139.894 102.286 140.029 102.08 140.12 101.834L142.04 102.05C141.919 102.557 141.688 103 141.347 103.379C141.01 103.754 140.578 104.046 140.051 104.254C139.525 104.459 138.923 104.561 138.245 104.561ZM145.922 92.7543V104.391H143.865V92.7543H145.922Z" fill="#FF4F00"/>
<rect x="213" y="7" width="40" height="24" stroke="#FF4F00" stroke-width="2"/>
<path d="M233 3C238.75 3 243.927 3.50028 247.64 4.2959C249.504 4.69544 250.946 5.15862 251.897 5.64062C252.375 5.88243 252.679 6.10435 252.851 6.28418C253.018 6.45936 253 6.52794 253 6.5C253 6.47206 253.018 6.54064 252.851 6.71582C252.679 6.89565 252.375 7.11757 251.897 7.35938C250.946 7.84138 249.504 8.30456 247.64 8.7041C243.927 9.49972 238.75 10 233 10C227.25 10 222.073 9.49972 218.36 8.7041C216.496 8.30456 215.054 7.84138 214.103 7.35938C213.625 7.11757 213.321 6.89565 213.149 6.71582C212.982 6.54064 213 6.47206 213 6.5C213 6.52794 212.982 6.45936 213.149 6.28418C213.321 6.10435 213.625 5.88243 214.103 5.64062C215.054 5.15862 216.496 4.69544 218.36 4.2959C222.073 3.50028 227.25 3 233 3Z" fill="white" stroke="#FF4F00" stroke-width="2"/>
<path d="M232.5 1C236.449 1 239.992 1.38713 242.519 1.99707C243.79 2.30393 244.749 2.65401 245.365 3.00586C245.807 3.25771 245.94 3.43391 245.981 3.5C245.94 3.56609 245.807 3.74229 245.365 3.99414C244.749 4.34599 243.79 4.69607 242.519 5.00293C239.992 5.61287 236.449 6 232.5 6C228.551 6 225.008 5.61287 222.481 5.00293C221.21 4.69607 220.251 4.34599 219.635 3.99414C219.193 3.74173 219.058 3.56575 219.018 3.5C219.058 3.43425 219.193 3.25827 219.635 3.00586C220.251 2.65401 221.21 2.30393 222.481 1.99707C225.008 1.38713 228.551 1 232.5 1Z" fill="white" stroke="#FF4F00" stroke-width="2"/>
<path d="M51 214L53.8868 209L48.1132 209L51 214ZM51 174L48.1132 179L53.8868 179L51 174ZM51 209.5L51.5 209.5L51.5 178.5L51 178.5L50.5 178.5L50.5 209.5L51 209.5Z" fill="#FF4F00"/>
<path d="M59 176.25C58.5858 176.25 58.25 176.586 58.25 177C58.25 177.414 58.5858 177.75 59 177.75V176.25ZM60.75 177.75C61.1642 177.75 61.5 177.414 61.5 177C61.5 176.586 61.1642 176.25 60.75 176.25V177.75ZM64.25 176.25C63.8358 176.25 63.5 176.586 63.5 177C63.5 177.414 63.8358 177.75 64.25 177.75V176.25ZM67.75 177.75C68.1642 177.75 68.5 177.414 68.5 177C68.5 176.586 68.1642 176.25 67.75 176.25V177.75ZM71.25 176.25C70.8358 176.25 70.5 176.586 70.5 177C70.5 177.414 70.8358 177.75 71.25 177.75V176.25ZM74.75 177.75C75.1642 177.75 75.5 177.414 75.5 177C75.5 176.586 75.1642 176.25 74.75 176.25V177.75ZM78.25 176.25C77.8358 176.25 77.5 176.586 77.5 177C77.5 177.414 77.8358 177.75 78.25 177.75V176.25ZM81.75 177.75C82.1642 177.75 82.5 177.414 82.5 177C82.5 176.586 82.1642 176.25 81.75 176.25V177.75ZM85.25 176.25C84.8358 176.25 84.5 176.586 84.5 177C84.5 177.414 84.8358 177.75 85.25 177.75V176.25ZM59 177V177.75H60.75V177V176.25H59V177ZM64.25 177V177.75H67.75V177V176.25H64.25V177ZM71.25 177V177.75H74.75V177V176.25H71.25V177ZM78.25 177V177.75H81.75V177V176.25H78.25V177ZM85.25 177V177.75H87V177V176.25H85.25V177Z" fill="#FF4F00"/>
<path d="M87.0001 211.749C87.4143 211.749 87.7501 211.413 87.75 210.998C87.7499 210.584 87.4141 210.249 86.9999 210.249L87.0001 211.749ZM59.8126 211.754C60.2269 211.754 60.5626 211.418 60.5625 211.003C60.5624 210.589 60.2266 210.254 59.8124 210.254L59.8126 211.754ZM63.4374 210.253C63.0231 210.253 62.6874 210.589 62.6875 211.003C62.6876 211.417 63.0234 211.753 63.4376 211.753L63.4374 210.253ZM67.0626 211.752C67.4768 211.752 67.8126 211.416 67.8125 211.002C67.8124 210.588 67.4766 210.252 67.0624 210.252L67.0626 211.752ZM70.6874 210.252C70.2732 210.252 69.9374 210.588 69.9375 211.002C69.9376 211.416 70.2734 211.752 70.6876 211.752L70.6874 210.252ZM74.3126 211.751C74.7268 211.751 75.0626 211.415 75.0625 211.001C75.0624 210.587 74.7266 210.251 74.3124 210.251L74.3126 211.751ZM77.9374 210.25C77.5232 210.25 77.1874 210.586 77.1875 211C77.1876 211.415 77.5234 211.75 77.9376 211.75L77.9374 210.25ZM81.5626 211.75C81.9768 211.75 82.3126 211.414 82.3125 210.999C82.3124 210.585 81.9766 210.25 81.5624 210.25L81.5626 211.75ZM85.1874 210.249C84.7732 210.249 84.4374 210.585 84.4375 210.999C84.4376 211.413 84.7734 211.749 85.1876 211.749L85.1874 210.249ZM58 211.004L58.0001 211.754L59.8126 211.754L59.8125 211.004L59.8124 210.254L57.9999 210.254L58 211.004ZM63.4375 211.003L63.4376 211.753L67.0626 211.752L67.0625 211.002L67.0624 210.252L63.4374 210.253L63.4375 211.003ZM70.6875 211.002L70.6876 211.752L74.3126 211.751L74.3125 211.001L74.3124 210.251L70.6874 210.252L70.6875 211.002ZM77.9375 211L77.9376 211.75L81.5626 211.75L81.5625 211L81.5624 210.25L77.9374 210.25L77.9375 211ZM85.1875 210.999L85.1876 211.749L87.0001 211.749L87 210.999L86.9999 210.249L85.1874 210.249L85.1875 210.999Z" fill="#FF4F00"/>
</svg>
